<?xml version="1.0" standalone="no"?>
<!DOCTYPE svg PUBLIC "-//W3C//DTD SVG 20010904//EN"
 "http://www.w3.org/TR/2001/REC-SVG-20010904/DTD/svg10.dtd">
<svg version="1.0" xmlns="http://www.w3.org/2000/svg"
 width="700.000000pt" height="700.000000pt" viewBox="0 0 700.000000 700.000000"
 preserveAspectRatio="xMidYMid meet">
<metadata>
Created by potrace 1.14, written by Peter Selinger 2001-2017
</metadata>
<g transform="translate(0.000000,700.000000) scale(0.100000,-0.100000)"
fill="#000000" stroke="none">
<path d="M2786 6984 c-343 -62 -662 -228 -929 -484 -199 -189 -329 -457 -362
-745 -18 -156 0 -384 42 -536 17 -62 21 -66 28 -30 2 13 6 30 9 39 3 9 7 35
11 57 11 76 64 291 96 390 63 198 156 387 248 508 153 199 484 480 856 727 44
30 91 62 104 72 l24 18 -24 -1 c-13 0 -60 -7 -103 -15z"/>
<path d="M3488 6936 c-1 -2 -54 -6 -117 -10 -109 -6 -158 -15 -95 -17 43 -2
91 -6 164 -13 69 -8 81 -9 205 -31 625 -112 1116 -451 1415 -977 136 -240 269
-599 296 -803 3 -27 8 -53 10 -56 7 -11 18 -164 18 -249 0 -247 -56 -478 -180
-738 -93 -195 -196 -362 -454 -727 -74 -104 -163 -233 -198 -285 -35 -52 -61
-84 -57 -70 20 78 56 218 59 235 2 11 11 54 19 95 16 76 21 109 32 190 3 25 8
61 11 80 10 61 13 522 4 585 -4 33 -11 83 -15 110 -32 255 -151 546 -294 725
-64 80 -203 215 -297 290 -64 51 -162 123 -334 246 -107 76 -231 167 -274 203
-287 231 -401 466 -391 807 2 56 8 119 14 140 11 42 16 71 26 149 4 28 9 63
11 79 l5 28 -29 -23 c-131 -109 -272 -373 -321 -604 -24 -112 -38 -136 -182
-325 -76 -100 -278 -348 -342 -420 -162 -181 -382 -466 -473 -612 -59 -94
-187 -344 -242 -473 -124 -288 -158 -595 -92 -840 89 -331 331 -583 695 -723
74 -28 233 -72 259 -72 6 0 -25 20 -69 43 -84 44 -238 143 -290 186 -16 14
-69 64 -116 111 -288 285 -354 629 -202 1055 63 177 219 484 341 670 25 38
177 249 195 270 82 98 420 569 454 632 6 13 19 33 27 45 15 22 16 22 16 2 0
-28 38 -171 57 -214 110 -252 210 -353 592 -601 238 -155 445 -421 515 -661
78 -270 46 -609 -97 -1033 -16 -49 -38 -108 -48 -130 -9 -22 -29 -68 -44 -101
-43 -100 -154 -186 -715 -557 -380 -252 -538 -372 -714 -545 -325 -319 -489
-676 -440 -956 40 -229 173 -414 415 -576 103 -69 293 -164 409 -205 41 -14
104 -46 140 -69 139 -93 293 -152 470 -182 90 -15 409 -9 500 10 266 55 444
131 636 272 229 168 376 394 440 677 1 4 2 17 3 30 0 13 26 63 57 111 31 49
57 101 59 117 2 16 9 38 15 49 20 37 2 20 -28 -27 -43 -67 -108 -127 -172
-160 -48 -25 -66 -28 -145 -28 -82 0 -97 3 -157 33 -118 58 -209 188 -242 347
-15 70 -16 284 -2 350 88 406 236 684 674 1272 344 462 456 633 576 883 51
107 122 299 132 359 3 14 7 34 10 43 10 34 30 152 40 239 8 72 8 246 0 338 -5
61 -24 167 -51 296 -11 50 -52 172 -101 301 -182 473 -460 837 -824 1079 -174
115 -459 237 -633 271 -10 2 -26 5 -35 8 -20 6 -58 13 -127 22 -27 3 -53 8
-57 10 -4 3 -71 7 -150 10 -79 3 -148 7 -155 9 -6 2 -13 2 -15 1z m-575 -721
c33 -324 189 -550 632 -920 155 -129 211 -178 280 -245 247 -239 337 -380 400
-629 18 -70 14 -95 -5 -34 -36 113 -205 405 -291 503 -89 102 -201 210 -259
250 -19 13 -37 27 -40 31 -12 16 -156 102 -269 160 -95 49 -139 79 -190 129
-142 139 -239 320 -276 515 -14 75 -17 223 -5 259 6 21 13 36 15 34 1 -2 5
-25 8 -53z m498 -3632 c-188 -317 -319 -516 -526 -798 -72 -99 -154 -214 -182
-255 -133 -198 -224 -418 -250 -603 -21 -155 8 -345 71 -455 31 -53 25 -50
-111 51 -173 130 -304 285 -356 425 -29 76 -31 251 -3 327 100 281 361 565
876 955 47 36 92 70 100 77 8 6 76 59 150 116 74 58 162 128 195 156 33 28 61
51 62 51 1 0 -11 -21 -26 -47z m639 -665 c-22 -133 -20 -356 4 -448 50 -196
142 -333 276 -415 74 -45 143 -63 229 -62 39 1 71 -1 71 -4 0 -10 -116 -59
-183 -78 -132 -36 -294 -21 -399 36 -77 42 -141 119 -174 209 -24 66 -28 91
-28 183 0 121 1 129 39 266 31 117 160 415 179 415 1 0 -5 -46 -14 -102z
m-711 -129 c-85 -214 -127 -424 -127 -638 0 -367 126 -637 355 -759 226 -120
512 -71 788 135 107 80 255 227 345 342 105 135 103 133 79 76 -140 -341 -450
-590 -849 -684 -130 -31 -181 -36 -360 -35 -134 0 -183 5 -262 23 -197 46
-325 109 -422 207 -136 139 -169 318 -97 533 54 161 123 274 327 536 60 77
138 182 174 232 36 50 66 90 68 88 1 -1 -7 -27 -19 -56z m246 -361 c0 -119 7
-181 30 -258 63 -217 218 -369 432 -425 78 -21 238 -18 323 6 36 10 66 16 68
14 2 -2 -23 -21 -55 -42 -256 -172 -493 -230 -647 -160 -239 110 -304 481
-164 935 5 17 10 32 11 32 1 0 2 -46 2 -102z"/>
</g>
</svg>
